{
  "accessors": [
    {
      "name": "cssxt_1_positions",
      "componentType": 5126,
      "count": 877,
      "min": [
        -0.13699999451637268,
        0,
        -0.14159999787807465
      ],
      "max": [
        0.34619998931884766,
        0.4207000136375427,
        0.14159999787807465
      ],
      "type": "VEC3",
      "bufferView": 0,
      "byteOffset": 0
    },
    {
      "name": "cssxt_1_normals",
      "componentType": 5126,
      "count": 877,
      "min": [
        -1,
        -1,
        -1
      ],
      "max": [
        1,
        1,
        1
      ],
      "type": "VEC3",
      "bufferView": 0,
      "byteOffset": 10524
    },
    {
      "name": "cssxt_1_texcoords",
      "componentType": 5126,
      "count": 877,
      "min": [
        -0.032099999487400055,
        -0.03620000183582306
      ],
      "max": [
        1.0499999523162842,
        1.0399999618530273
      ],
      "type": "VEC2",
      "bufferView": 1,
      "byteOffset": 0
    },
    {
      "name": "cssxt_1_0_indices",
      "componentType": 5123,
      "count": 1920,
      "min": [
        0
      ],
      "max": [
        876
      ],
      "type": "SCALAR",
      "bufferView": 2,
      "byteOffset": 0
    },
    {
      "name": "cssxt_1_1_indices",
      "componentType": 5123,
      "count": 48,
      "min": [
        666
      ],
      "max": [
        796
      ],
      "type": "SCALAR",
      "bufferView": 2,
      "byteOffset": 3840
    }
  ],
  "asset": {
    "generator": "obj2gltf",
    "version": "2.0"
  },
  "buffers": [
    {
      "name": "cssxt",
      "byteLength": 58936,
      "uri": "data:application/octet-stream;base64,"
    }
  ],
  "bufferViews": [
    {
      "name": "bufferView_0",
      "buffer": 0,
      "byteLength": 21048,
      "byteOffset": 0,
      "byteStride": 12,
      "target": 34962
    },
    {
      "name": "bufferView_1",
      "buffer": 0,
      "byteLength": 7016,
      "byteOffset": 21048,
      "byteStride": 8,
      "target": 34962
    },
    {
      "name": "bufferView_2",
      "buffer": 0,
      "byteLength": 3936,
      "byteOffset": 28064,
      "target": 34963
    },
    {
      "buffer": 0,
      "byteOffset": 32000,
      "byteLength": 26936
    }
  ],
  "images": [
    {
      "name": "jt",
      "mimeType": "image/jpeg",
      "bufferView": 3
    }
  ],
  "materials": [
    {
      "name": "baise",
      "pbrMetallicRoughness": {
        "baseColorFactor": [
          0.8824,
          0.8824,
          0.8824,
          1
        ],
        "metallicFactor": 0,
        "roughnessFactor": 0.975
      },
      "emissiveFactor": [
        0,
        0,
        0
      ],
      "alphaMode": "OPAQUE",
      "doubleSided": false
    },
    {
      "name": "jt",
      "pbrMetallicRoughness": {
        "baseColorTexture": {
          "index": 0
        },
        "baseColorFactor": [
          1,
          1,
          1,
          1
        ],
        "metallicFactor": 0,
        "roughnessFactor": 0.99
      },
      "emissiveFactor": [
        0,
        0,
        0
      ],
      "alphaMode": "OPAQUE",
      "doubleSided": false
    }
  ],
  "meshes": [
    {
      "name": "cssxt_1",
      "primitives": [
        {
          "attributes": {
            "POSITION": 0,
            "NORMAL": 1,
            "TEXCOORD_0": 2
          },
          "indices": 3,
          "material": 0,
          "mode": 4
        },
        {
          "attributes": {
            "POSITION": 0,
            "NORMAL": 1,
            "TEXCOORD_0": 2
          },
          "indices": 4,
          "material": 1,
          "mode": 4
        }
      ]
    }
  ],
  "nodes": [
    {
      "name": "cssxt",
      "mesh": 0
    }
  ],
  "samplers": [
    {
      "magFilter": 9729,
      "minFilter": 9986,
      "wrapS": 10497,
      "wrapT": 10497
    }
  ],
  "scene": 0,
  "scenes": [
    {
      "nodes": [
        0
      ]
    }
  ],
  "textures": [
    {
      "name": "jt",
      "sampler": 0,
      "source": 0
    }
  ]
}
